<?xml version="1.0" standalone="no"?>
<!DOCTYPE svg PUBLIC "-//W3C//DTD SVG 20010904//EN"
 "http://www.w3.org/TR/2001/REC-SVG-20010904/DTD/svg10.dtd">
<svg version="1.0" xmlns="http://www.w3.org/2000/svg"
 width="700.000000pt" height="700.000000pt" viewBox="0 0 700.000000 700.000000"
 preserveAspectRatio="xMidYMid meet">
<metadata>
Created by potrace 1.14, written by Peter Selinger 2001-2017
</metadata>
<g transform="translate(0.000000,700.000000) scale(0.100000,-0.100000)"
fill="#000000" stroke="none">
<path d="M3595 6985 c-68 -37 -58 -21 -536 -811 -580 -959 -2115 -3536 -2701
-4534 -349 -594 -348 -593 -348 -636 0 -53 21 -79 78 -98 155 -51 1108 -296
2493 -642 l1076 -268 1184 323 c1118 306 1791 494 2011 562 100 31 131 54 144
105 6 25 -2 41 -314 624 -729 1360 -2661 4879 -2894 5273 -61 102 -127 137
-193 102z m767 -1735 c135 -245 350 -636 478 -870 128 -234 496 -904 818
-1490 322 -586 643 -1170 713 -1299 71 -129 127 -237 124 -240 -3 -2 -27 2
-53 11 -51 16 -1482 627 -1494 637 -17 15 -889 3719 -888 3772 0 22 42 -50
302 -521z m-863 -1503 l1 -1719 -517 5 c-491 4 -593 10 -593 34 0 9 790 2685
951 3221 76 254 140 466 141 470 10 43 16 -578 17 -2011z m-414 1747 c-82
-299 -287 -1007 -545 -1879 -138 -467 -301 -1022 -363 -1232 l-112 -382 -580
-247 c-624 -266 -924 -388 -932 -380 -14 14 1140 1958 2057 3466 401 659 514
842 518 832 1 -5 -18 -86 -43 -178z m786 -265 c79 -317 96 -389 245 -1014 112
-471 335 -1422 439 -1880 49 -212 62 -281 52 -287 -16 -11 -793 -6 -804 5 -4
5 -10 788 -11 1740 -2 953 -1 1729 2 1726 3 -3 38 -133 77 -290z m-371 -3996
c0 -481 -11 -827 -26 -867 -5 -13 -14 -16 -38 -11 -243 51 -2741 677 -2755
691 -23 22 174 122 634 322 165 72 428 187 585 255 l285 125 658 1 657 1 0
-517z m1742 318 c677 -290 1075 -472 1093 -501 3 -5 4 -10 1 -10 -4 0 -97 -27
-209 -59 -419 -124 -1635 -458 -2091 -576 -123 -32 -222 -53 -227 -48 -17 17
-29 375 -29 881 l0 512 499 0 499 0 464 -199z"/>
</g>
</svg>
